<mxfile host="app.diagrams.net" modified="2020-11-10T06:18:17.456Z" agent="5.0 (Windows NT 10.0; WOW64) AppleWebKit/537.36 (KHTML, like Gecko) Chrome/85.0.4183.102 Safari/537.36" etag="rhmPaEUn8kdjkJpjYZKm" version="13.9.2" type="github">
  <diagram name="Page-1" id="13e1069c-82ec-6db2-03f1-153e76fe0fe0">
    <mxGraphModel dx="2062" dy="1122" grid="1" gridSize="10" guides="1" tooltips="1" connect="1" arrows="1" fold="1" page="1" pageScale="1" pageWidth="1100" pageHeight="850" background="#ffffff" math="0" shadow="0">
      <root>
        <mxCell id="0" />
        <mxCell id="1" parent="0" />
        <mxCell id="7baba1c4bc27f4b0-2" value="worldsvr" style="shape=umlLifeline;perimeter=lifelinePerimeter;whiteSpace=wrap;html=1;container=1;collapsible=0;recursiveResize=0;outlineConnect=0;rounded=1;shadow=0;comic=0;labelBackgroundColor=none;strokeWidth=1;fontFamily=Verdana;fontSize=12;align=center;" parent="1" vertex="1">
          <mxGeometry x="240" y="80" width="100" height="580" as="geometry" />
        </mxCell>
        <mxCell id="aI0ucFePpMLx2uMBPgBm-15" value="" style="html=1;points=[];perimeter=orthogonalPerimeter;" vertex="1" parent="7baba1c4bc27f4b0-2">
          <mxGeometry x="45" y="281" width="10" height="90" as="geometry" />
        </mxCell>
        <mxCell id="aI0ucFePpMLx2uMBPgBm-19" value="开始出题" style="html=1;points=[];perimeter=orthogonalPerimeter;" vertex="1" parent="7baba1c4bc27f4b0-2">
          <mxGeometry x="45" y="451" width="10" height="80" as="geometry" />
        </mxCell>
        <mxCell id="7baba1c4bc27f4b0-3" value="guildsvr" style="shape=umlLifeline;perimeter=lifelinePerimeter;whiteSpace=wrap;html=1;container=1;collapsible=0;recursiveResize=0;outlineConnect=0;rounded=1;shadow=0;comic=0;labelBackgroundColor=none;strokeWidth=1;fontFamily=Verdana;fontSize=12;align=center;" parent="1" vertex="1">
          <mxGeometry x="400" y="80" width="100" height="580" as="geometry" />
        </mxCell>
        <mxCell id="7baba1c4bc27f4b0-13" value="" style="html=1;points=[];perimeter=orthogonalPerimeter;rounded=0;shadow=0;comic=0;labelBackgroundColor=none;strokeWidth=1;fontFamily=Verdana;fontSize=12;align=center;" parent="7baba1c4bc27f4b0-3" vertex="1">
          <mxGeometry x="45" y="151" width="10" height="100" as="geometry" />
        </mxCell>
        <mxCell id="aI0ucFePpMLx2uMBPgBm-13" value="" style="html=1;points=[];perimeter=orthogonalPerimeter;" vertex="1" parent="7baba1c4bc27f4b0-3">
          <mxGeometry x="51" y="211" width="10" height="40" as="geometry" />
        </mxCell>
        <mxCell id="aI0ucFePpMLx2uMBPgBm-14" value="亲密度更新" style="edgeStyle=orthogonalEdgeStyle;html=1;align=left;spacingLeft=2;endArrow=block;rounded=0;entryX=1;entryY=0;" edge="1" target="aI0ucFePpMLx2uMBPgBm-13" parent="7baba1c4bc27f4b0-3">
          <mxGeometry relative="1" as="geometry">
            <mxPoint x="56" y="161" as="sourcePoint" />
            <Array as="points">
              <mxPoint x="56" y="161" />
              <mxPoint x="81" y="161" />
              <mxPoint x="81" y="211" />
            </Array>
          </mxGeometry>
        </mxCell>
        <mxCell id="aI0ucFePpMLx2uMBPgBm-16" value="" style="html=1;points=[];perimeter=orthogonalPerimeter;" vertex="1" parent="7baba1c4bc27f4b0-3">
          <mxGeometry x="45" y="371" width="10" height="80" as="geometry" />
        </mxCell>
        <mxCell id="7baba1c4bc27f4b0-8" value="gamesvr" style="shape=umlLifeline;perimeter=lifelinePerimeter;whiteSpace=wrap;html=1;container=1;collapsible=0;recursiveResize=0;outlineConnect=0;rounded=1;shadow=0;comic=0;labelBackgroundColor=none;strokeWidth=1;fontFamily=Verdana;fontSize=12;align=center;" parent="1" vertex="1">
          <mxGeometry x="100" y="80" width="100" height="580" as="geometry" />
        </mxCell>
        <mxCell id="7baba1c4bc27f4b0-9" value="" style="html=1;points=[];perimeter=orthogonalPerimeter;rounded=0;shadow=0;comic=0;labelBackgroundColor=none;strokeWidth=1;fontFamily=Verdana;fontSize=12;align=center;" parent="7baba1c4bc27f4b0-8" vertex="1">
          <mxGeometry x="45" y="61" width="10" height="90" as="geometry" />
        </mxCell>
        <mxCell id="aI0ucFePpMLx2uMBPgBm-3" value="name" style="endArrow=block;endFill=1;html=1;edgeStyle=orthogonalEdgeStyle;align=left;verticalAlign=top;" edge="1" parent="1">
          <mxGeometry x="-1" relative="1" as="geometry">
            <mxPoint x="149.5" y="231" as="sourcePoint" />
            <mxPoint x="449.5" y="231" as="targetPoint" />
            <Array as="points">
              <mxPoint x="250" y="231" />
              <mxPoint x="250" y="231" />
            </Array>
          </mxGeometry>
        </mxCell>
        <mxCell id="aI0ucFePpMLx2uMBPgBm-4" value="1" style="edgeLabel;resizable=0;html=1;align=left;verticalAlign=bottom;" connectable="0" vertex="1" parent="aI0ucFePpMLx2uMBPgBm-3">
          <mxGeometry x="-1" relative="1" as="geometry" />
        </mxCell>
        <mxCell id="aI0ucFePpMLx2uMBPgBm-5" value="gs上报缓存数据" style="edgeLabel;html=1;align=center;verticalAlign=middle;resizable=0;points=[];" vertex="1" connectable="0" parent="aI0ucFePpMLx2uMBPgBm-3">
          <mxGeometry x="-0.1767" relative="1" as="geometry">
            <mxPoint x="1" as="offset" />
          </mxGeometry>
        </mxCell>
        <mxCell id="aI0ucFePpMLx2uMBPgBm-17" value="营地题目列表请求" style="html=1;verticalAlign=bottom;endArrow=block;entryX=0;entryY=0;" edge="1" target="aI0ucFePpMLx2uMBPgBm-16" parent="1">
          <mxGeometry relative="1" as="geometry">
            <mxPoint x="289.5" y="451" as="sourcePoint" />
          </mxGeometry>
        </mxCell>
        <mxCell id="aI0ucFePpMLx2uMBPgBm-18" value="return" style="html=1;verticalAlign=bottom;endArrow=open;dashed=1;endSize=8;exitX=0;exitY=0.95;" edge="1" source="aI0ucFePpMLx2uMBPgBm-16" parent="1">
          <mxGeometry relative="1" as="geometry">
            <mxPoint x="289.5" y="527" as="targetPoint" />
          </mxGeometry>
        </mxCell>
      </root>
    </mxGraphModel>
  </diagram>
</mxfile>
